<?xml version="1.0" encoding="utf-8"?>
<!-- Generator: Circuit Diagram, cdlibrary.dll 4.0.0.0 -->
<!DOCTYPE svg PUBLIC "-//W3C//DTD SVG 1.1//EN" "http://www.w3.org/Graphics/SVG/1.1/DTD/svg11.dtd">
<svg version="1.1" width="660" height="360" xmlns="http://www.w3.org/2000/svg">
	<line x1="250" y1="130" x2="360" y2="130" style="stroke:rgb(0, 0, 0);stroke-linecap:square;stroke-width:2" />
	<line x1="250" y1="120" x2="250" y2="130" style="stroke:rgb(0, 0, 0);stroke-linecap:square;stroke-width:2" />
	<line x1="460" y1="40" x2="460" y2="140" style="stroke:rgb(0, 0, 0);stroke-linecap:square;stroke-width:2" />
	<line x1="220" y1="40" x2="460" y2="40" style="stroke:rgb(0, 0, 0);stroke-linecap:square;stroke-width:2" />
	<line x1="440" y1="140" x2="460" y2="140" style="stroke:rgb(0, 0, 0);stroke-linecap:square;stroke-width:2" />
	<line x1="290" y1="250" x2="480" y2="250" style="stroke:rgb(0, 0, 0);stroke-linecap:square;stroke-width:2" />
	<line x1="100" y1="80" x2="150" y2="80" style="stroke:rgb(0, 0, 0);stroke-linecap:square;stroke-width:2" />
	<line x1="100" y1="120" x2="150" y2="120" style="stroke:rgb(0, 0, 0);stroke-linecap:square;stroke-width:2" />
	<line x1="100" y1="160" x2="150" y2="160" style="stroke:rgb(0, 0, 0);stroke-linecap:square;stroke-width:2" />
	<line x1="100" y1="200" x2="150" y2="200" style="stroke:rgb(0, 0, 0);stroke-linecap:square;stroke-width:2" />
	<line x1="30" y1="200" x2="70" y2="200" style="stroke:rgb(0, 0, 0);stroke-linecap:square;stroke-width:2" />
	<line x1="30" y1="160" x2="70" y2="160" style="stroke:rgb(0, 0, 0);stroke-linecap:square;stroke-width:2" />
	<line x1="30" y1="120" x2="70" y2="120" style="stroke:rgb(0, 0, 0);stroke-linecap:square;stroke-width:2" />
	<line x1="30" y1="80" x2="70" y2="80" style="stroke:rgb(0, 0, 0);stroke-linecap:square;stroke-width:2" />
	<line x1="30" y1="320" x2="290" y2="320" style="stroke:rgb(0, 0, 0);stroke-linecap:square;stroke-width:2" />
	<line x1="30" y1="40" x2="30" y2="320" style="stroke:rgb(0, 0, 0);stroke-linecap:square;stroke-width:2" />
	<line x1="30" y1="40" x2="120" y2="40" style="stroke:rgb(0, 0, 0);stroke-linecap:square;stroke-width:2" />
	<line x1="260" y1="150" x2="360" y2="150" style="stroke:rgb(0, 0, 0);stroke-linecap:square;stroke-width:2" />
	<line x1="260" y1="150" x2="260" y2="200" style="stroke:rgb(0, 0, 0);stroke-linecap:square;stroke-width:2" />
	<line x1="200" y1="200" x2="260" y2="200" style="stroke:rgb(0, 0, 0);stroke-linecap:square;stroke-width:2" />
	<line x1="250" y1="140" x2="360" y2="140" style="stroke:rgb(0, 0, 0);stroke-linecap:square;stroke-width:2" />
	<line x1="250" y1="140" x2="250" y2="160" style="stroke:rgb(0, 0, 0);stroke-linecap:square;stroke-width:2" />
	<line x1="200" y1="160" x2="250" y2="160" style="stroke:rgb(0, 0, 0);stroke-linecap:square;stroke-width:2" />
	<line x1="200" y1="120" x2="250" y2="120" style="stroke:rgb(0, 0, 0);stroke-linecap:square;stroke-width:2" />
	<line x1="260" y1="120" x2="360" y2="120" style="stroke:rgb(0, 0, 0);stroke-linecap:square;stroke-width:2" />
	<line x1="260" y1="80" x2="260" y2="120" style="stroke:rgb(0, 0, 0);stroke-linecap:square;stroke-width:2" />
	<line x1="200" y1="80" x2="260" y2="80" style="stroke:rgb(0, 0, 0);stroke-linecap:square;stroke-width:2" />
	<line x1="440" y1="100" x2="520" y2="100" style="stroke:rgb(0, 0, 0);stroke-linecap:square;stroke-width:2" />
	<line x1="510" y1="130" x2="520" y2="130" style="stroke:rgb(0, 0, 0);stroke-linecap:square;stroke-width:2" />
	<line x1="510" y1="130" x2="510" y2="280" style="stroke:rgb(0, 0, 0);stroke-linecap:square;stroke-width:2" />
	<line x1="510" y1="280" x2="570" y2="280" style="stroke:rgb(0, 0, 0);stroke-linecap:square;stroke-width:2" />
	<line x1="520" y1="220" x2="570" y2="220" style="stroke:rgb(0, 0, 0);stroke-linecap:square;stroke-width:2" />
	<line x1="520" y1="150" x2="520" y2="220" style="stroke:rgb(0, 0, 0);stroke-linecap:square;stroke-width:2" />
	<line x1="480" y1="140" x2="480" y2="250" style="stroke:rgb(0, 0, 0);stroke-linecap:square;stroke-width:2" />
	<line x1="480" y1="140" x2="520" y2="140" style="stroke:rgb(0, 0, 0);stroke-linecap:square;stroke-width:2" />
	<line x1="520" y1="60" x2="520" y2="80" style="stroke:rgb(0, 0, 0);stroke-linecap:square;stroke-width:2" />
	<line x1="330" y1="60" x2="520" y2="60" style="stroke:rgb(0, 0, 0);stroke-linecap:square;stroke-width:2" />
	<line x1="330" y1="60" x2="330" y2="190" style="stroke:rgb(0, 0, 0);stroke-linecap:square;stroke-width:2" />
	<line x1="330" y1="190" x2="360" y2="190" style="stroke:rgb(0, 0, 0);stroke-linecap:square;stroke-width:2" />
	<line x1="290" y1="210" x2="360" y2="210" style="stroke:rgb(0, 0, 0);stroke-linecap:square;stroke-width:2" />
	<line x1="290" y1="210" x2="290" y2="320" style="stroke:rgb(0, 0, 0);stroke-linecap:square;stroke-width:2" />
	<line x1="340" y1="220" x2="360" y2="220" style="stroke:rgb(0, 0, 0);stroke-linecap:square;stroke-width:2" />
	<line x1="340" y1="220" x2="340" y2="320" style="stroke:rgb(0, 0, 0);stroke-linecap:square;stroke-width:2" />
	<line x1="570" y1="220" x2="570" y2="230" style="stroke:rgb(0, 0, 0);stroke-linecap:square;stroke-width:2" />
	<line x1="570" y1="270" x2="570" y2="280" style="stroke:rgb(0, 0, 0);stroke-linecap:square;stroke-width:2" />
	<path d="M 570,230 L 578,230 L 593,215 L 593,285 L 578,270 L 578,230 L 562,230 L 562,270 L 578,270" style="fill-opacity:0;fill:rgb(0, 0, 0);stroke:rgb(0, 0, 0);stroke-linecap:square;stroke-width:2" />
	<line x1="100" y1="200" x2="70" y2="200" style="stroke:rgb(0, 0, 0);stroke-linecap:square;stroke-width:2" />
	<path d="M 78,200 M 78,192 L 78,208 M 78,200 L 93,208 L 93,192 L 78,200" style="fill-opacity:0;fill:rgb(0, 0, 0);stroke:rgb(0, 0, 0);stroke-linecap:square;stroke-width:2" />
	<path d="M 80,200 M 82,189 L 74,181 M 73,180 L 77,182 L 75,184 L 73,180 L 77,182" style="fill-opacity:0;fill:rgb(0, 0, 0);stroke:rgb(0, 0, 0);stroke-linecap:square;stroke-width:2" />
	<path d="M 80,200 M 76,196 L 68,188 M 67,187 L 71,189 L 69,191 L 67,187 L 71,189" style="fill-opacity:0;fill:rgb(0, 0, 0);stroke:rgb(0, 0, 0);stroke-linecap:square;stroke-width:2" />
	<line x1="100" y1="160" x2="70" y2="160" style="stroke:rgb(0, 0, 0);stroke-linecap:square;stroke-width:2" />
	<path d="M 78,160 M 78,152 L 78,168 M 78,160 L 93,168 L 93,152 L 78,160" style="fill-opacity:0;fill:rgb(0, 0, 0);stroke:rgb(0, 0, 0);stroke-linecap:square;stroke-width:2" />
	<path d="M 80,160 M 82,149 L 74,141 M 73,140 L 77,142 L 75,144 L 73,140 L 77,142" style="fill-opacity:0;fill:rgb(0, 0, 0);stroke:rgb(0, 0, 0);stroke-linecap:square;stroke-width:2" />
	<path d="M 80,160 M 76,156 L 68,148 M 67,147 L 71,149 L 69,151 L 67,147 L 71,149" style="fill-opacity:0;fill:rgb(0, 0, 0);stroke:rgb(0, 0, 0);stroke-linecap:square;stroke-width:2" />
	<line x1="100" y1="120" x2="70" y2="120" style="stroke:rgb(0, 0, 0);stroke-linecap:square;stroke-width:2" />
	<path d="M 78,120 M 78,112 L 78,128 M 78,120 L 93,128 L 93,112 L 78,120" style="fill-opacity:0;fill:rgb(0, 0, 0);stroke:rgb(0, 0, 0);stroke-linecap:square;stroke-width:2" />
	<path d="M 80,120 M 82,109 L 74,101 M 73,100 L 77,102 L 75,104 L 73,100 L 77,102" style="fill-opacity:0;fill:rgb(0, 0, 0);stroke:rgb(0, 0, 0);stroke-linecap:square;stroke-width:2" />
	<path d="M 80,120 M 76,116 L 68,108 M 67,107 L 71,109 L 69,111 L 67,107 L 71,109" style="fill-opacity:0;fill:rgb(0, 0, 0);stroke:rgb(0, 0, 0);stroke-linecap:square;stroke-width:2" />
	<line x1="100" y1="80" x2="70" y2="80" style="stroke:rgb(0, 0, 0);stroke-linecap:square;stroke-width:2" />
	<path d="M 78,80 M 78,72 L 78,88 M 78,80 L 93,88 L 93,72 L 78,80" style="fill-opacity:0;fill:rgb(0, 0, 0);stroke:rgb(0, 0, 0);stroke-linecap:square;stroke-width:2" />
	<path d="M 80,80 M 82,69 L 74,61 M 73,60 L 77,62 L 75,64 L 73,60 L 77,62" style="fill-opacity:0;fill:rgb(0, 0, 0);stroke:rgb(0, 0, 0);stroke-linecap:square;stroke-width:2" />
	<path d="M 80,80 M 76,76 L 68,68 M 67,67 L 71,69 L 69,71 L 67,67 L 71,69" style="fill-opacity:0;fill:rgb(0, 0, 0);stroke:rgb(0, 0, 0);stroke-linecap:square;stroke-width:2" />
	<line x1="120" y1="40" x2="156" y2="40" style="stroke:rgb(0, 0, 0);stroke-linecap:square;stroke-width:2" />
	<line x1="184" y1="40" x2="220" y2="40" style="stroke:rgb(0, 0, 0);stroke-linecap:square;stroke-width:2" />
	<ellipse cx="159" cy="40" rx="3" ry="3" style="fill-opacity:0;fill:rgb(0, 0, 0);stroke:rgb(0, 0, 0);stroke-width:2" />
	<ellipse cx="181" cy="40" rx="3" ry="3" style="fill-opacity:0;fill:rgb(0, 0, 0);stroke:rgb(0, 0, 0);stroke-width:2" />
	<line x1="158" y1="32" x2="182" y2="32" style="stroke:rgb(0, 0, 0);stroke-linecap:square;stroke-width:2" />
	<line x1="164" y1="26" x2="176" y2="26" style="stroke:rgb(0, 0, 0);stroke-linecap:square;stroke-width:2" />
	<line x1="170" y1="26" x2="170" y2="32" style="stroke:rgb(0, 0, 0);stroke-linecap:square;stroke-width:2" />
	<line x1="440" y1="90" x2="460" y2="90" style="stroke:rgb(0, 0, 0);stroke-linecap:square;stroke-width:2" />
	<line x1="500" y1="90" x2="520" y2="90" style="stroke:rgb(0, 0, 0);stroke-linecap:square;stroke-width:2" />
	<rect x="460" y="82" width="40" height="16" style="fill-opacity:0;fill:rgb(0, 0, 0);stroke:rgb(0, 0, 0);stroke-width:2" />
	<text x="480" y="76" style="font-family:Arial;font-size:11px;text-anchor:middle" dominant-baseline="baseline" transform="rotate(0, 480, 76)">1 kΩ</text>
	<line x1="290" y1="320" x2="306" y2="320" style="stroke:rgb(0, 0, 0);stroke-linecap:square;stroke-width:2" />
	<line x1="306" y1="310" x2="306" y2="330" style="stroke:rgb(0, 0, 0);stroke-linecap:square;stroke-width:2" />
	<line x1="312" y1="315" x2="312" y2="325" style="stroke:rgb(0, 0, 0);stroke-linecap:square;stroke-width:2" />
	<line x1="318" y1="310" x2="318" y2="330" style="stroke:rgb(0, 0, 0);stroke-linecap:square;stroke-width:2" />
	<line x1="324" y1="315" x2="324" y2="325" style="stroke:rgb(0, 0, 0);stroke-linecap:square;stroke-width:2" />
	<line x1="324" y1="320" x2="340" y2="320" style="stroke:rgb(0, 0, 0);stroke-linecap:square;stroke-width:2" />
	<text x="315" y="308" style="font-family:Arial;font-size:12px;text-anchor:middle" dominant-baseline="baseline" transform="rotate(0, 315, 308)">+5V</text>
	<text x="580" y="60" style="font-family:Arial;font-size:11px;text-anchor:middle" dominant-baseline="middle" transform="rotate(0, 580, 60)">DFPlayer Mini</text>
	<rect x="530" y="70" width="100" height="90" style="fill-opacity:0;fill:rgb(0, 0, 0);stroke:rgb(0, 0, 0);stroke-width:2" />
	<line x1="520" y1="80" x2="530" y2="80" style="stroke:rgb(0, 0, 0);stroke-linecap:square;stroke-width:2" />
	<text x="534" y="80" style="font-family:Arial;font-size:11px;text-anchor:start" dominant-baseline="middle" transform="rotate(0, 534, 80)">VCC</text>
	<line x1="630" y1="80" x2="640" y2="80" style="stroke:rgb(0, 0, 0);stroke-linecap:square;stroke-width:2" />
	<text x="626" y="80" style="font-family:Arial;font-size:11px;text-anchor:end" dominant-baseline="middle" transform="rotate(0, 626, 80)">Busy</text>
	<line x1="520" y1="90" x2="530" y2="90" style="stroke:rgb(0, 0, 0);stroke-linecap:square;stroke-width:2" />
	<text x="534" y="90" style="font-family:Arial;font-size:11px;text-anchor:start" dominant-baseline="middle" transform="rotate(0, 534, 90)">RX</text>
	<line x1="630" y1="90" x2="640" y2="90" style="stroke:rgb(0, 0, 0);stroke-linecap:square;stroke-width:2" />
	<text x="626" y="90" style="font-family:Arial;font-size:11px;text-anchor:end" dominant-baseline="middle" transform="rotate(0, 626, 90)">USB-</text>
	<line x1="520" y1="100" x2="530" y2="100" style="stroke:rgb(0, 0, 0);stroke-linecap:square;stroke-width:2" />
	<text x="534" y="100" style="font-family:Arial;font-size:11px;text-anchor:start" dominant-baseline="middle" transform="rotate(0, 534, 100)">TX</text>
	<line x1="630" y1="100" x2="640" y2="100" style="stroke:rgb(0, 0, 0);stroke-linecap:square;stroke-width:2" />
	<text x="626" y="100" style="font-family:Arial;font-size:11px;text-anchor:end" dominant-baseline="middle" transform="rotate(0, 626, 100)">USB+</text>
	<line x1="520" y1="110" x2="530" y2="110" style="stroke:rgb(0, 0, 0);stroke-linecap:square;stroke-width:2" />
	<text x="534" y="110" style="font-family:Arial;font-size:11px;text-anchor:start" dominant-baseline="middle" transform="rotate(0, 534, 110)">DAC_R</text>
	<line x1="630" y1="110" x2="640" y2="110" style="stroke:rgb(0, 0, 0);stroke-linecap:square;stroke-width:2" />
	<text x="626" y="110" style="font-family:Arial;font-size:11px;text-anchor:end" dominant-baseline="middle" transform="rotate(0, 626, 110)">ADKEY_2</text>
	<line x1="520" y1="120" x2="530" y2="120" style="stroke:rgb(0, 0, 0);stroke-linecap:square;stroke-width:2" />
	<text x="534" y="120" style="font-family:Arial;font-size:11px;text-anchor:start" dominant-baseline="middle" transform="rotate(0, 534, 120)">DAC_I</text>
	<line x1="630" y1="120" x2="640" y2="120" style="stroke:rgb(0, 0, 0);stroke-linecap:square;stroke-width:2" />
	<text x="626" y="120" style="font-family:Arial;font-size:11px;text-anchor:end" dominant-baseline="middle" transform="rotate(0, 626, 120)">ADKEY_1</text>
	<line x1="520" y1="130" x2="530" y2="130" style="stroke:rgb(0, 0, 0);stroke-linecap:square;stroke-width:2" />
	<text x="534" y="130" style="font-family:Arial;font-size:11px;text-anchor:start" dominant-baseline="middle" transform="rotate(0, 534, 130)">SPK_1</text>
	<line x1="630" y1="130" x2="640" y2="130" style="stroke:rgb(0, 0, 0);stroke-linecap:square;stroke-width:2" />
	<text x="626" y="130" style="font-family:Arial;font-size:11px;text-anchor:end" dominant-baseline="middle" transform="rotate(0, 626, 130)">IO_2</text>
	<line x1="520" y1="140" x2="530" y2="140" style="stroke:rgb(0, 0, 0);stroke-linecap:square;stroke-width:2" />
	<text x="534" y="140" style="font-family:Arial;font-size:11px;text-anchor:start" dominant-baseline="middle" transform="rotate(0, 534, 140)">GND</text>
	<line x1="630" y1="140" x2="640" y2="140" style="stroke:rgb(0, 0, 0);stroke-linecap:square;stroke-width:2" />
	<text x="626" y="140" style="font-family:Arial;font-size:11px;text-anchor:end" dominant-baseline="middle" transform="rotate(0, 626, 140)">GND</text>
	<line x1="520" y1="150" x2="530" y2="150" style="stroke:rgb(0, 0, 0);stroke-linecap:square;stroke-width:2" />
	<text x="534" y="150" style="font-family:Arial;font-size:11px;text-anchor:start" dominant-baseline="middle" transform="rotate(0, 534, 150)">SPK_2</text>
	<line x1="630" y1="150" x2="640" y2="150" style="stroke:rgb(0, 0, 0);stroke-linecap:square;stroke-width:2" />
	<text x="626" y="150" style="font-family:Arial;font-size:11px;text-anchor:end" dominant-baseline="middle" transform="rotate(0, 626, 150)">IO_1</text>
	<rect x="355" y="70" width="90" height="160" style="fill-opacity:0;fill:rgb(0, 0, 0);stroke:rgb(0, 0, 0);stroke-width:2" />
	<rect x="388" y="70" width="24" height="28" style="fill-opacity:0;fill:rgb(0, 0, 0);stroke:rgb(0, 0, 0);stroke-width:2" />
	<rect x="385" y="198" width="30" height="28" style="fill-opacity:0;fill:rgb(0, 0, 0);stroke:rgb(0, 0, 0);stroke-width:2" />
	<ellipse cx="390" cy="220" rx="2" ry="2" style="fill-opacity:0;fill:rgb(0, 0, 0);stroke:rgb(0, 0, 0);stroke-width:2" />
	<ellipse cx="400" cy="220" rx="2" ry="2" style="fill-opacity:0;fill:rgb(0, 0, 0);stroke:rgb(0, 0, 0);stroke-width:2" />
	<ellipse cx="410" cy="220" rx="2" ry="2" style="fill-opacity:0;fill:rgb(0, 0, 0);stroke:rgb(0, 0, 0);stroke-width:2" />
	<ellipse cx="390" cy="205" rx="2" ry="2" style="fill-opacity:0;fill:rgb(0, 0, 0);stroke:rgb(0, 0, 0);stroke-width:2" />
	<ellipse cx="400" cy="205" rx="2" ry="2" style="fill-opacity:0;fill:rgb(0, 0, 0);stroke:rgb(0, 0, 0);stroke-width:2" />
	<ellipse cx="410" cy="205" rx="2" ry="2" style="fill-opacity:0;fill:rgb(0, 0, 0);stroke:rgb(0, 0, 0);stroke-width:2" />
	<line x1="360" y1="80" x2="355" y2="80" style="stroke:rgb(0, 0, 0);stroke-linecap:square;stroke-width:2" />
	<line x1="360" y1="90" x2="355" y2="90" style="stroke:rgb(0, 0, 0);stroke-linecap:square;stroke-width:2" />
	<line x1="360" y1="100" x2="355" y2="100" style="stroke:rgb(0, 0, 0);stroke-linecap:square;stroke-width:2" />
	<line x1="360" y1="110" x2="355" y2="110" style="stroke:rgb(0, 0, 0);stroke-linecap:square;stroke-width:2" />
	<line x1="360" y1="120" x2="355" y2="120" style="stroke:rgb(0, 0, 0);stroke-linecap:square;stroke-width:2" />
	<line x1="360" y1="130" x2="355" y2="130" style="stroke:rgb(0, 0, 0);stroke-linecap:square;stroke-width:2" />
	<line x1="360" y1="140" x2="355" y2="140" style="stroke:rgb(0, 0, 0);stroke-linecap:square;stroke-width:2" />
	<line x1="360" y1="150" x2="355" y2="150" style="stroke:rgb(0, 0, 0);stroke-linecap:square;stroke-width:2" />
	<line x1="360" y1="160" x2="355" y2="160" style="stroke:rgb(0, 0, 0);stroke-linecap:square;stroke-width:2" />
	<line x1="360" y1="170" x2="355" y2="170" style="stroke:rgb(0, 0, 0);stroke-linecap:square;stroke-width:2" />
	<line x1="360" y1="180" x2="355" y2="180" style="stroke:rgb(0, 0, 0);stroke-linecap:square;stroke-width:2" />
	<line x1="360" y1="190" x2="355" y2="190" style="stroke:rgb(0, 0, 0);stroke-linecap:square;stroke-width:2" />
	<line x1="360" y1="200" x2="355" y2="200" style="stroke:rgb(0, 0, 0);stroke-linecap:square;stroke-width:2" />
	<line x1="360" y1="210" x2="355" y2="210" style="stroke:rgb(0, 0, 0);stroke-linecap:square;stroke-width:2" />
	<line x1="360" y1="220" x2="355" y2="220" style="stroke:rgb(0, 0, 0);stroke-linecap:square;stroke-width:2" />
	<line x1="445" y1="80" x2="440" y2="80" style="stroke:rgb(0, 0, 0);stroke-linecap:square;stroke-width:2" />
	<line x1="445" y1="90" x2="440" y2="90" style="stroke:rgb(0, 0, 0);stroke-linecap:square;stroke-width:2" />
	<line x1="445" y1="100" x2="440" y2="100" style="stroke:rgb(0, 0, 0);stroke-linecap:square;stroke-width:2" />
	<line x1="445" y1="110" x2="440" y2="110" style="stroke:rgb(0, 0, 0);stroke-linecap:square;stroke-width:2" />
	<line x1="445" y1="120" x2="440" y2="120" style="stroke:rgb(0, 0, 0);stroke-linecap:square;stroke-width:2" />
	<line x1="445" y1="130" x2="440" y2="130" style="stroke:rgb(0, 0, 0);stroke-linecap:square;stroke-width:2" />
	<line x1="445" y1="140" x2="440" y2="140" style="stroke:rgb(0, 0, 0);stroke-linecap:square;stroke-width:2" />
	<line x1="445" y1="150" x2="440" y2="150" style="stroke:rgb(0, 0, 0);stroke-linecap:square;stroke-width:2" />
	<line x1="445" y1="160" x2="440" y2="160" style="stroke:rgb(0, 0, 0);stroke-linecap:square;stroke-width:2" />
	<line x1="445" y1="170" x2="440" y2="170" style="stroke:rgb(0, 0, 0);stroke-linecap:square;stroke-width:2" />
	<line x1="445" y1="180" x2="440" y2="180" style="stroke:rgb(0, 0, 0);stroke-linecap:square;stroke-width:2" />
	<line x1="445" y1="190" x2="440" y2="190" style="stroke:rgb(0, 0, 0);stroke-linecap:square;stroke-width:2" />
	<line x1="445" y1="200" x2="440" y2="200" style="stroke:rgb(0, 0, 0);stroke-linecap:square;stroke-width:2" />
	<line x1="445" y1="210" x2="440" y2="210" style="stroke:rgb(0, 0, 0);stroke-linecap:square;stroke-width:2" />
	<line x1="445" y1="220" x2="440" y2="220" style="stroke:rgb(0, 0, 0);stroke-linecap:square;stroke-width:2" />
	<text x="400" y="120" style="font-family:Arial;font-size:11px;text-anchor:middle" dominant-baseline="middle" transform="rotate(0, 400, 120)">Arduino</text>
	<text x="400" y="130" style="font-family:Arial;font-size:11px;text-anchor:middle" dominant-baseline="middle" transform="rotate(0, 400, 130)">Nano</text>
	<text x="358" y="80" style="font-family:Arial;font-size:11px;text-anchor:start" dominant-baseline="middle" transform="rotate(0, 358, 80)">D13</text>
	<text x="358" y="90" style="font-family:Arial;font-size:11px;text-anchor:start" dominant-baseline="middle" transform="rotate(0, 358, 90)">3V3</text>
	<text x="358" y="100" style="font-family:Arial;font-size:11px;text-anchor:start" dominant-baseline="middle" transform="rotate(0, 358, 100)">REF</text>
	<text x="358" y="110" style="font-family:Arial;font-size:11px;text-anchor:start" dominant-baseline="middle" transform="rotate(0, 358, 110)">A0 </text>
	<text x="358" y="120" style="font-family:Arial;font-size:11px;text-anchor:start" dominant-baseline="middle" transform="rotate(0, 358, 120)">A1 </text>
	<text x="358" y="130" style="font-family:Arial;font-size:11px;text-anchor:start" dominant-baseline="middle" transform="rotate(0, 358, 130)">A2 </text>
	<text x="358" y="140" style="font-family:Arial;font-size:11px;text-anchor:start" dominant-baseline="middle" transform="rotate(0, 358, 140)">A3 </text>
	<text x="358" y="150" style="font-family:Arial;font-size:11px;text-anchor:start" dominant-baseline="middle" transform="rotate(0, 358, 150)">A4 </text>
	<text x="358" y="160" style="font-family:Arial;font-size:11px;text-anchor:start" dominant-baseline="middle" transform="rotate(0, 358, 160)">A5 </text>
	<text x="358" y="170" style="font-family:Arial;font-size:11px;text-anchor:start" dominant-baseline="middle" transform="rotate(0, 358, 170)">A6 </text>
	<text x="358" y="180" style="font-family:Arial;font-size:11px;text-anchor:start" dominant-baseline="middle" transform="rotate(0, 358, 180)">A7 </text>
	<text x="358" y="190" style="font-family:Arial;font-size:11px;text-anchor:start" dominant-baseline="middle" transform="rotate(0, 358, 190)">5V </text>
	<text x="358" y="200" style="font-family:Arial;font-size:11px;text-anchor:start" dominant-baseline="middle" transform="rotate(0, 358, 200)">RST</text>
	<text x="358" y="210" style="font-family:Arial;font-size:11px;text-anchor:start" dominant-baseline="middle" transform="rotate(0, 358, 210)">GND</text>
	<text x="358" y="220" style="font-family:Arial;font-size:11px;text-anchor:start" dominant-baseline="middle" transform="rotate(0, 358, 220)">VIN</text>
	<text x="442" y="80" style="font-family:Arial;font-size:11px;text-anchor:end" dominant-baseline="middle" transform="rotate(0, 442, 80)">D12</text>
	<text x="442" y="90" style="font-family:Arial;font-size:11px;text-anchor:end" dominant-baseline="middle" transform="rotate(0, 442, 90)">D11</text>
	<text x="442" y="100" style="font-family:Arial;font-size:11px;text-anchor:end" dominant-baseline="middle" transform="rotate(0, 442, 100)">D10</text>
	<text x="442" y="110" style="font-family:Arial;font-size:11px;text-anchor:end" dominant-baseline="middle" transform="rotate(0, 442, 110)">D9</text>
	<text x="442" y="120" style="font-family:Arial;font-size:11px;text-anchor:end" dominant-baseline="middle" transform="rotate(0, 442, 120)">D8</text>
	<text x="442" y="130" style="font-family:Arial;font-size:11px;text-anchor:end" dominant-baseline="middle" transform="rotate(0, 442, 130)">D7</text>
	<text x="442" y="140" style="font-family:Arial;font-size:11px;text-anchor:end" dominant-baseline="middle" transform="rotate(0, 442, 140)">D6</text>
	<text x="442" y="150" style="font-family:Arial;font-size:11px;text-anchor:end" dominant-baseline="middle" transform="rotate(0, 442, 150)">D5</text>
	<text x="442" y="160" style="font-family:Arial;font-size:11px;text-anchor:end" dominant-baseline="middle" transform="rotate(0, 442, 160)">D4</text>
	<text x="442" y="170" style="font-family:Arial;font-size:11px;text-anchor:end" dominant-baseline="middle" transform="rotate(0, 442, 170)">D3</text>
	<text x="442" y="180" style="font-family:Arial;font-size:11px;text-anchor:end" dominant-baseline="middle" transform="rotate(0, 442, 180)">D2</text>
	<text x="442" y="190" style="font-family:Arial;font-size:11px;text-anchor:end" dominant-baseline="middle" transform="rotate(0, 442, 190)">GND</text>
	<text x="442" y="200" style="font-family:Arial;font-size:11px;text-anchor:end" dominant-baseline="middle" transform="rotate(0, 442, 200)">RST</text>
	<text x="442" y="210" style="font-family:Arial;font-size:11px;text-anchor:end" dominant-baseline="middle" transform="rotate(0, 442, 210)">RX0</text>
	<text x="442" y="220" style="font-family:Arial;font-size:11px;text-anchor:end" dominant-baseline="middle" transform="rotate(0, 442, 220)">TX1</text>
	<line x1="150" y1="200" x2="155" y2="200" style="stroke:rgb(0, 0, 0);stroke-linecap:square;stroke-width:2" />
	<line x1="195" y1="200" x2="200" y2="200" style="stroke:rgb(0, 0, 0);stroke-linecap:square;stroke-width:2" />
	<rect x="155" y="192" width="40" height="16" style="fill-opacity:0;fill:rgb(0, 0, 0);stroke:rgb(0, 0, 0);stroke-width:2" />
	<text x="175" y="186" style="font-family:Arial;font-size:11px;text-anchor:middle" dominant-baseline="baseline" transform="rotate(0, 175, 186)">220 Ω</text>
	<line x1="150" y1="160" x2="155" y2="160" style="stroke:rgb(0, 0, 0);stroke-linecap:square;stroke-width:2" />
	<line x1="195" y1="160" x2="200" y2="160" style="stroke:rgb(0, 0, 0);stroke-linecap:square;stroke-width:2" />
	<rect x="155" y="152" width="40" height="16" style="fill-opacity:0;fill:rgb(0, 0, 0);stroke:rgb(0, 0, 0);stroke-width:2" />
	<text x="175" y="146" style="font-family:Arial;font-size:11px;text-anchor:middle" dominant-baseline="baseline" transform="rotate(0, 175, 146)">220 Ω</text>
	<line x1="150" y1="120" x2="155" y2="120" style="stroke:rgb(0, 0, 0);stroke-linecap:square;stroke-width:2" />
	<line x1="195" y1="120" x2="200" y2="120" style="stroke:rgb(0, 0, 0);stroke-linecap:square;stroke-width:2" />
	<rect x="155" y="112" width="40" height="16" style="fill-opacity:0;fill:rgb(0, 0, 0);stroke:rgb(0, 0, 0);stroke-width:2" />
	<text x="175" y="106" style="font-family:Arial;font-size:11px;text-anchor:middle" dominant-baseline="baseline" transform="rotate(0, 175, 106)">220 Ω</text>
	<line x1="150" y1="80" x2="155" y2="80" style="stroke:rgb(0, 0, 0);stroke-linecap:square;stroke-width:2" />
	<line x1="195" y1="80" x2="200" y2="80" style="stroke:rgb(0, 0, 0);stroke-linecap:square;stroke-width:2" />
	<rect x="155" y="72" width="40" height="16" style="fill-opacity:0;fill:rgb(0, 0, 0);stroke:rgb(0, 0, 0);stroke-width:2" />
	<text x="175" y="66" style="font-family:Arial;font-size:11px;text-anchor:middle" dominant-baseline="baseline" transform="rotate(0, 175, 66)">220 Ω</text>
	<ellipse cx="290" cy="250" rx="2" ry="2" style="fill-opacity:1;fill:rgb(0, 0, 0);stroke:rgb(0, 0, 0);stroke-width:2" />
	<ellipse cx="30" cy="200" rx="2" ry="2" style="fill-opacity:1;fill:rgb(0, 0, 0);stroke:rgb(0, 0, 0);stroke-width:2" />
	<ellipse cx="30" cy="160" rx="2" ry="2" style="fill-opacity:1;fill:rgb(0, 0, 0);stroke:rgb(0, 0, 0);stroke-width:2" />
	<ellipse cx="30" cy="120" rx="2" ry="2" style="fill-opacity:1;fill:rgb(0, 0, 0);stroke:rgb(0, 0, 0);stroke-width:2" />
	<ellipse cx="30" cy="80" rx="2" ry="2" style="fill-opacity:1;fill:rgb(0, 0, 0);stroke:rgb(0, 0, 0);stroke-width:2" />
	<ellipse cx="290" cy="320" rx="2" ry="2" style="fill-opacity:1;fill:rgb(0, 0, 0);stroke:rgb(0, 0, 0);stroke-width:2" />
</svg>